# xmcd
# 
# Track frame offsets:
#     150
#     1822
#     24474
#     40700
#     58110
#     83672
#     109350
#     130174
#     152482
#     173192
#     192255
#     218101
#     232844
#     250708
#     271363
#     287100
#     310847
#     329089
# 
# Disc length: 4506
# 
# Revision: 0
# Processed by: cddbd v1.5.2PL0 Copyright (c) Steve Scherf et al.
# Submitted via: fre:ac v1.0.17
# 
DISCID=f1119812
DTITLE=GProject Blues Band - DIVERSIFIED
DYEAR=2016
DGENRE=Blues
TTITLE0=Intro Howlin Wolf
TTITLE1=The Letter
TTITLE2=Who Is Muddy Waters
TTITLE3=Ain´t Just Like A Woman
TTITLE4=Last Man Standing
TTITLE5=Patience Is An Option
TTITLE6=GProject Theme
TTITLE7=Bottle Of Beer
TTITLE8=Nobody Else
TTITLE9=I Love The Life I Live
TTITLE10=SoundArea22
TTITLE11=200 Words
TTITLE12=Thats Why Its Called The Blues
TTITLE13=Out Of Hell
TTITLE14=True Lies
TTITLE15=Nobody Else Reprise
TTITLE16=RadioMix Patience Is An Option
TTITLE17=The Letter Homeversion Outro
EXTD=
EXTT0=
EXTT1=
EXTT2=
EXTT3=
EXTT4=
EXTT5=
EXTT6=
EXTT7=
EXTT8=
EXTT9=
EXTT10=
EXTT11=
EXTT12=
EXTT13=
EXTT14=
EXTT15=
EXTT16=
EXTT17=
PLAYORDER=
